#!OML:ASF I:\salsa\salsa 7_09\Patient 1\Session 1\dancermale.ASF
:FULLY-SPECIFIED
:DEGREES
1606
root 8.59978 16.7565 -1.07943 32.8858 285.398 -746.744
lowerback 4.1453 2.06118 0.133702
upperback 1.02745 2.73279 -0.334349
thorax -1.24426 1.35852 -0.557319
lowerneck -6.77125 7.60525 3.52152
upperneck 7.07928 10.1402 -3.72942
head 3.9431 4.94954 -1.26807
rclavicle 1.78906e-014 -1.74931e-014
rhumerus 10.4527 38.3078 -70.3376
rradius 61.3577
rwrist -48.5868
rhand 18.4901 -13.3106
rfingers 7.12502
rthumb 43.126 -37.5118
lclavicle 1.78906e-014 -1.74931e-014
lhumerus 8.76481 11.8718 80.8972
lradius 46.0072
lwrist 64.1916
lhand -21.1243 48.1416
lfingers 7.12502
lthumb 5.25437 78.0564
rfemur -21.15 -10.0393 32.3527
rtibia 36.8778
rfoot -23.842 -17.7371
rtoes 6.30746
lfemur -40.4822 7.91787 -2.22136
ltibia 56.3429
lfoot -14.4873 5.61869
ltoes -7.57635
1607
root 8.49737 16.7393 -1.00631 34.8577 284.667 -748.629
lowerback 3.81215 2.2448 0.214906
upperback 1.00887 2.98537 -0.085739
thorax -1.08388 1.48557 -0.347086
lowerneck -6.94634 7.45939 3.31614
upperneck 7.23753 9.98297 -3.92226
head 4.02719 4.85318 -1.29813
rclavicle -1.63003e-014 -7.15625e-015
rhumerus 10.9691 36.7369 -70.6766
rradius 60.9332
rwrist -46.4233
rhand 20.4171 -15.0278
rfingers 7.12502
rthumb 44.9234 -38.5574
lclavicle -1.63003e-014 -7.15625e-015
lhumerus 8.53583 12.5698 79.3395
lradius 47.3762
lwrist 64.6704
lhand -20.68 48.2146
lfingers 7.12502
lthumb 5.6833 78.1184
rfemur -20.9198 -9.85177 32.2218
rtibia 37.0948
rfoot -23.9028 -17.6774
rtoes 5.74872
lfemur -41.2923 7.23922 -1.84023
ltibia 51.8715
lfoot -12.9106 3.45793
ltoes -8.57671
1608
root 8.38796 16.7291 -0.926511 36.6459 283.99 -750.342
lowerback 3.5264 2.39971 0.218707
upperback 0.962484 3.19609 0.197353
thorax -0.986349 1.59153 -0.0577688
lowerneck -6.47228 7.20524 3.9022
upperneck 7.1637 9.6456 -4.52175
head 3.97297 4.68422 -1.63988
rclavicle 3.45885e-014 -1.66979e-014
rhumerus 11.3046 35.448 -70.8819
rradius 60.6006
rwrist -44.0823
rhand 21.8828 -15.7496
rfingers 7.12502
rthumb 46.2849 -38.7246
lclavicle 3.45885e-014 -1.66979e-014
lhumerus 8.29204 13.2222 77.8156
lradius 48.76
lwrist 65.126
lhand -20.0749 47.9618
lfingers 7.12502
lthumb 6.26747 77.8491
rfemur -20.5477 -9.59817 31.9606
rtibia 37.1513
rfoot -24.1468 -17.4352
rtoes 5.96272
lfemur -41.7159 6.5301 -1.44097
ltibia 46.9815
lfoot -10.8171 1.19214
ltoes -9.53892
1609
root 8.2707 16.726 -0.84029 38.5114 283.468 -752.211
lowerback 3.37458 2.5455 0.329261
upperback 0.879008 3.39835 0.514361
thorax -0.999542 1.69264 0.200672
lowerneck -6.59696 7.06158 3.66726
upperneck 7.40114 9.50082 -4.75215
head 4.0757 4.59048 -1.67898
rclavicle 1.0138e-014 3.97569e-015
rhumerus 11.318 34.3081 -71.048
rradius 60.4144
rwrist -41.9891
rhand 23.118 -15.9865
rfingers 7.12502
rthumb 47.4279 -38.4619
lclavicle 1.0138e-014 3.97569e-015
lhumerus 7.96353 13.7312 76.3327
lradius 50.302
lwrist 65.8177
lhand -19.5499 47.6613
lfingers 7.12502
lthumb 6.77435 77.5329
rfemur -19.9807 -9.37187 31.7277
rtibia 37.0172
rfoot -24.3463 -17.2581
rtoes 6.15264
lfemur -41.799 5.73656 -0.899686
ltibia 42.0205
lfoot -7.7524 -0.639825
ltoes -7.62456
1610
root 8.14304 16.7268 -0.746501 40.345 282.948 -754.005
lowerback 3.01501 2.66653 0.438271
upperback 0.860672 3.56371 0.817837
thorax -0.830435 1.77543 0.460837
lowerneck -7.00529 6.97631 3.32817
upperneck 7.7997 9.45604 -5.06953
head 4.29744 4.53049 -1.71185
rclavicle -5.51627e-014 2.38542e-015
rhumerus 11.3349 33.4357 -71.0086
rradius 60.3916
rwrist -40.3551
rhand 23.975 -16.0362
rfingers 7.12502
rthumb 48.2184 -38.1465
lclavicle -5.51627e-014 2.38542e-015
lhumerus 7.81729 14.3288 74.9529
lradius 51.8519
lwrist 66.6715
lhand -19.4318 47.5449
lfingers 7.12502
lthumb 6.88833 77.4128
rfemur -19.3949 -9.10657 31.4228
rtibia 36.8435
rfoot -24.5813 -17.2334
rtoes 5.74552
lfemur -41.7079 5.03583 -0.444795
ltibia 37.2755
lfoot -3.59637 -1.58936
ltoes -4.54583
1611
root 8.00174 16.7329 -0.642205 41.9383 282.396 -755.622
lowerback 2.43066 2.75641 0.504428
upperback 1.00329 3.67805 1.14354
thorax -0.37567 1.8321 0.787796
lowerneck -7.04053 6.814 3.64178
upperneck 8.4955 9.29873 -5.77813
head 4.13256 4.40247 -1.7991
rclavicle -3.21037e-014 -1.63003e-014
rhumerus 11.9212 32.8835 -70.3233
rradius 60.2458
rwrist -38.8124
rhand 25.2462 -16.016
rfingers 7.12502
rthumb 49.3871 -37.5547
lclavicle -3.21037e-014 -1.63003e-014
lhumerus 7.91988 15.008 73.7333
lradius 53.2457
lwrist 67.5769
lhand -19.5384 47.3482
lfingers 7.12502
lthumb 6.78544 77.2194
rfemur -18.5811 -8.74392 30.9758
rtibia 36.5281
rfoot -24.8329 -17.2403
rtoes 5.39463
lfemur -41.3242 4.6376 -0.345928
ltibia 32.8718
lfoot 0.805951 -1.77362
ltoes -4.87039
1612
root 7.8518 16.7489 -0.530097 43.2831 281.86 -757.183
lowerback 2.07238 2.84502 0.722851
upperback 1.13067 3.79206 1.37598
thorax -0.0476837 1.88836 0.924493
lowerneck -7.5493 6.7457 2.94944
upperneck 8.95776 9.28294 -5.66243
head 4.32001 4.35834 -1.6329
rclavicle -1.71949e-014 -1.31198e-014
rhumerus 12.6131 32.1976 -69.6435
rradius 59.7457
rwrist -36.8557
rhand 27.9097 -15.7749
rfingers 7.12502
rthumb 51.8182 -35.9879
lclavicle -1.71949e-014 -1.31198e-014
lhumerus 8.03137 15.4803 72.4829
lradius 54.4264
lwrist 68.338
lhand -19.8228 47.1223
lfingers 7.12502
lthumb 6.51092 77.0022
rfemur -17.3899 -8.2631 30.4354
rtibia 35.9747
rfoot -24.9664 -17.3355
rtoes 4.92391
lfemur -40.5254 4.45727 -0.572594
ltibia 28.9922
lfoot 4.60037 -1.58098
ltoes -5.46562
1613
root 7.69364 16.7654 -0.412687 45.0004 281.281 -759.077
lowerback 1.73475 2.96199 1.08764
upperback 1.14114 3.94615 1.49405
thorax 0.16648 1.96638 0.85922
lowerneck -7.5881 6.55963 3.03051
upperneck 9.32223 9.06903 -5.94477
head 4.4458 4.23062 -1.73903
rclavicle 8.39865e-015 7.15625e-015
rhumerus 13.053 31.352 -69.3714
rradius 59.0499
rwrist -34.872
rhand 30.5912 -15.2853
rfingers 7.12502
rthumb 54.2377 -33.9614
lclavicle 8.39865e-015 7.15625e-015
lhumerus 8.15522 15.8377 71.2971
lradius 55.4324
lwrist 68.8898
lhand -20.0216 46.9359
lfingers 7.12502
lthumb 6.31897 76.8217
rfemur -16.1554 -7.55044 29.9041
rtibia 35.3065
rfoot -25.0656 -17.4994
rtoes 4.4242
lfemur -39.6244 4.56125 -0.999464
ltibia 25.6669
lfoot 8.13139 -0.740485
ltoes -6.11204
1614
root 7.5232 16.7758 -0.289032 47.3501 280.572 -761.381
lowerback 1.17303 3.10976 1.41797
upperback 0.994709 4.13776 1.55136
thorax 0.348433 2.06431 0.760449
lowerneck -7.74734 6.42536 3.0928
upperneck 9.96501 8.94326 -6.25116
head 4.681 4.13404 -1.83662
rclavicle 3.59303e-014 -8.74653e-015
rhumerus 13.3657 30.4952 -69.3869
rradius 58.1532
rwrist -32.4611
rhand 33.1989 -14.4807
rfingers 7.12502
rthumb 56.5576 -31.4294
lclavicle 3.59303e-014 -8.74653e-015
lhumerus 8.2356 16.1565 70.2614
lradius 56.3402
lwrist 69.4645
lhand -19.8456 46.4031
lfingers 7.12502
lthumb 6.48891 76.2837
rfemur -15.2038 -6.7142 29.3094
rtibia 34.8166
rfoot -25.305 -17.5355
rtoes 4.28752
lfemur -38.9764 5.47649 -2.05018
ltibia 24.0315
lfoot 11.1624 -0.0731579
ltoes -6.00407
1615
root 7.34514 16.7833 -0.152541 48.9896 279.84 -762.901
lowerback 0.584225 3.19856 1.66444
upperback 0.731051 4.24933 1.57843
thorax 0.423248 2.12161 0.677553
lowerneck -7.53038 6.25564 3.27459
upperneck 10.371 8.75698 -6.62494
head 4.78548 4.02029 -1.99494
rclavicle -7.90169e-015 -9.34288e-015
rhumerus 13.3137 29.7036 -69.6085
rradius 57.4994
rwrist -30.0837
rhand 34.2913 -13.6396
rfingers 7.12502
rthumb 57.518 -29.7857
lclavicle -7.90169e-015 -9.34288e-015
lhumerus 8.18509 16.4547 69.3877
lradius 57.1945
lwrist 70.0869
lhand -19.6203 45.8989
lfingers 7.12502
lthumb 6.70642 75.7727
rfemur -14.4357 -6.10441 28.449
rtibia 34.571
rfoot -25.5991 -17.5174
rtoes 3.87217
lfemur -38.5298 6.45865 -3.59864
ltibia 23.0447
lfoot 13.1224 0.844031
ltoes -1.60739
